<svg version="1.1" id="Layer_1" xmlns="http://www.w3.org/2000/svg" xmlns:xlink="http://www.w3.org/1999/xlink" x="0px" y="0px" width="80px" height="50px" viewBox="0 0 80 50" style="enable-background:new 0 0 80 50;" xml:space="preserve">
<style type="text/css">
	.st0{fill:currentColor;}
</style>
<title>PrimeLogo_Blue</title>
<path class="st0" d="M1.15,29.2c-0.215,0.01-0.426-0.061-0.59-0.2c-0.14-0.167-0.205-0.384-0.18-0.6V8  C0.355,7.784,0.42,7.567,0.56,7.4c0.166-0.126,0.372-0.186,0.58-0.17h2.22C3.78,7.188,4.158,7.483,4.22,7.9l0.22,0.8  c0.639-0.617,1.394-1.103,2.22-1.43c0.845-0.342,1.748-0.519,2.66-0.52c1.818-0.06,3.556,0.749,4.68,2.18  c1.238,1.706,1.853,3.785,1.74,5.89c0.034,1.528-0.259,3.045-0.86,4.45c-0.496,1.17-1.302,2.183-2.33,2.93  c-0.994,0.678-2.177,1.028-3.38,1c-0.817,0.004-1.629-0.131-2.4-0.4c-0.709-0.238-1.364-0.612-1.93-1.1v6.72  c0.022,0.214-0.038,0.429-0.17,0.6c-0.171,0.132-0.386,0.192-0.6,0.17L1.15,29.2z M7.88,19.84c0.988,0.071,1.944-0.371,2.53-1.17  c0.623-1.118,0.905-2.394,0.81-3.67c0.096-1.288-0.182-2.576-0.8-3.71c-0.588-0.807-1.554-1.25-2.55-1.17  c-1.057,0.001-2.093,0.287-3,0.83V19c0.9,0.56,1.94,0.854,3,0.85L7.88,19.84z"/>
<path class="st0" d="M19.54,22.88c-0.358,0.067-0.703-0.169-0.77-0.528c-0.015-0.08-0.015-0.162,0-0.242V8  c-0.025-0.216,0.04-0.433,0.18-0.6c0.166-0.126,0.372-0.186,0.58-0.17h2.21c0.42-0.042,0.798,0.253,0.86,0.67L23,9.54  c0.657-0.769,1.442-1.419,2.32-1.92c0.716-0.375,1.512-0.57,2.32-0.57h0.43c0.217-0.019,0.434,0.041,0.61,0.17  c0.14,0.167,0.205,0.384,0.18,0.6v2.58c0.017,0.208-0.043,0.414-0.17,0.58c-0.167,0.14-0.384,0.205-0.6,0.18h-0.55  c-0.227,0-0.513,0-0.86,0c-0.578,0.012-1.154,0.079-1.72,0.2c-0.59,0.109-1.166,0.28-1.72,0.51v10.25  c0.016,0.208-0.044,0.414-0.17,0.58c-0.167,0.14-0.384,0.205-0.6,0.18L19.54,22.88z"/>
<path class="st0" d="M33.29,4.79c-0.682,0.034-1.351-0.195-1.87-0.64c-0.482-0.451-0.741-1.091-0.71-1.75  c-0.034-0.663,0.225-1.307,0.71-1.76c1.096-0.877,2.654-0.877,3.75,0c0.482,0.451,0.741,1.091,0.71,1.75  c0.031,0.659-0.228,1.299-0.71,1.75C34.65,4.591,33.977,4.824,33.29,4.79z M31.82,22.89c-0.358,0.067-0.703-0.169-0.77-0.528  c-0.015-0.08-0.015-0.162,0-0.242V8c-0.025-0.216,0.04-0.433,0.18-0.6c0.166-0.126,0.372-0.186,0.58-0.17h2.95  c0.214-0.022,0.429,0.038,0.6,0.17c0.132,0.171,0.192,0.386,0.17,0.6v14.12c0.017,0.208-0.043,0.414-0.17,0.58  c-0.167,0.14-0.384,0.205-0.6,0.18L31.82,22.89z"/>
<path class="st0" d="M40.1,22.88c-0.358,0.067-0.703-0.169-0.77-0.528c-0.015-0.08-0.015-0.162,0-0.242V8  c-0.025-0.216,0.04-0.433,0.18-0.6c0.166-0.126,0.372-0.186,0.58-0.17h2.21c0.42-0.042,0.798,0.253,0.86,0.67l0.25,0.83  c0.91-0.627,1.894-1.137,2.93-1.52c0.855-0.298,1.754-0.453,2.66-0.46c1.576-0.135,3.09,0.642,3.9,2  c0.913-0.628,1.905-1.132,2.95-1.5c0.922-0.307,1.888-0.462,2.86-0.46c1.228-0.074,2.432,0.36,3.33,1.2  c0.828,0.908,1.254,2.113,1.18,3.34v10.79c0.016,0.208-0.044,0.414-0.17,0.58c-0.167,0.14-0.384,0.205-0.6,0.18h-2.91  c-0.358,0.067-0.703-0.169-0.77-0.528c-0.015-0.08-0.015-0.162,0-0.242v-9.84c0-1.393-0.623-2.09-1.87-2.09  c-1.162,0.013-2.307,0.287-3.35,0.8v11.14c0.017,0.208-0.043,0.414-0.17,0.58c-0.167,0.14-0.384,0.205-0.6,0.18h-2.94  c-0.358,0.067-0.703-0.169-0.77-0.528c-0.015-0.08-0.015-0.162,0-0.242v-9.84c0-1.393-0.623-2.09-1.87-2.09  c-1.176,0.007-2.334,0.292-3.38,0.83v11.1c0.016,0.208-0.044,0.414-0.17,0.58c-0.167,0.14-0.384,0.205-0.6,0.18L40.1,22.88z"/>
<path class="st0" d="M73.92,23.34c-2.155,0.141-4.272-0.615-5.85-2.09c-1.443-1.652-2.164-3.813-2-6  c-0.144-2.267,0.586-4.504,2.04-6.25c1.515-1.564,3.636-2.393,5.81-2.27c1.608-0.096,3.196,0.395,4.47,1.38  c1.078,0.92,1.672,2.285,1.61,3.7c0.073,1.385-0.588,2.707-1.74,3.48c-1.551,0.886-3.328,1.296-5.11,1.18  c-1.01,0.012-2.018-0.102-3-0.34c0.006,1.106,0.452,2.164,1.24,2.94c0.933,0.662,2.069,0.977,3.21,0.89  c0.558,0,1.116-0.037,1.67-0.11c0.762-0.118,1.516-0.279,2.26-0.48h0.18h0.15c0.347,0,0.52,0.237,0.52,0.71v1.41  c0.019,0.239-0.029,0.478-0.14,0.69c-0.142,0.167-0.33,0.288-0.54,0.35C77.17,23.093,75.55,23.368,73.92,23.34z M72.92,13.71  c0.787,0.057,1.574-0.109,2.27-0.48c0.478-0.327,0.748-0.882,0.71-1.46c0-1.287-0.767-1.93-2.3-1.93c-1.967,0-3.103,1.207-3.41,3.62  c0.893,0.171,1.801,0.255,2.71,0.25H72.92z"/>
<path class="st0" d="M72.31,40.11C63.55,46.57,50.85,50,39.92,50c-14.606,0.078-28.716-5.295-39.57-15.07  c-0.82-0.74-0.09-1.75,0.9-1.18c12.058,6.885,25.705,10.501,39.59,10.49c10.361-0.055,20.61-2.152,30.16-6.17  C72.52,37.44,73.76,39,72.31,40.11z"/>
<path class="st0" d="M76,36c-1.12-1.43-7.4-0.68-10.23-0.34c-0.86,0.1-1-0.64-0.22-1.18c5-3.52,13.23-2.5,14.18-1.32  s-0.25,9.41-5,13.34c-0.72,0.6-1.41,0.28-1.09-0.52C74.71,43.29,77.08,37.39,76,36z"/>
</svg>